<?xml version="1.0" encoding="utf-8" standalone="no"?>
<!DOCTYPE svg PUBLIC "-//W3C//DTD SVG 1.1//EN"
  "http://www.w3.org/Graphics/SVG/1.1/DTD/svg11.dtd">
<svg xmlns:xlink="http://www.w3.org/1999/xlink" width="215.685pt" height="193.914pt" viewBox="0 0 215.685 193.914" xmlns="http://www.w3.org/2000/svg" version="1.1">
 <metadata>
  <rdf:RDF xmlns:dc="http://purl.org/dc/elements/1.1/" xmlns:cc="http://creativecommons.org/ns#" xmlns:rdf="http://www.w3.org/1999/02/22-rdf-syntax-ns#">
   <cc:Work>
    <dc:type rdf:resource="http://purl.org/dc/dcmitype/StillImage"/>
    <dc:date>2023-07-21T14:33:52.076062</dc:date>
    <dc:format>image/svg+xml</dc:format>
    <dc:creator>
     <cc:Agent>
      <dc:title>Matplotlib v3.7.2, https://matplotlib.org/</dc:title>
     </cc:Agent>
    </dc:creator>
   </cc:Work>
  </rdf:RDF>
 </metadata>
 <defs>
  <style type="text/css">*{stroke-linejoin: round; stroke-linecap: butt}</style>
 </defs>
 <g id="figure_1">
  <g id="patch_1">
   <path d="M 0 193.914 
L 215.685 193.914 
L 215.685 0 
L 0 0 
L 0 193.914 
z
" style="fill: none"/>
  </g>
  <g id="axes_1">
   <g id="line2d_1">
    <path d="M 61.11 158.787 
L 61.11 131.787 
L 61.11 116.787 
L 37.11 116.787 
L 37.11 92.787 
L 61.11 92.787 
L 61.11 77.787 
L 61.11 50.787 
" clip-path="url(#p0c68c53087)" style="fill: none; stroke: #000000; stroke-width: 0.75; stroke-linecap: round"/>
   </g>
   <g id="line2d_2">
    <path d="M 31.11 116.787 
L 31.11 92.787 
" clip-path="url(#p0c68c53087)" style="fill: none; stroke: #000000; stroke-width: 0.75; stroke-linecap: round"/>
   </g>
   <g id="line2d_3">
    <path d="M 31.11 104.787 
L 11.91 104.787 
" clip-path="url(#p0c68c53087)" style="fill: none; stroke: #000000; stroke-width: 0.75; stroke-linecap: round"/>
   </g>
   <g id="line2d_4">
    <path d="M 61.11 104.787 
L 46.11 104.787 
" clip-path="url(#p0c68c53087)" style="fill: none; stroke: #000000; stroke-width: 0.75; stroke-linecap: round"/>
   </g>
   <g id="patch_2">
    <path d="M 46.11 108.387 
L 37.11 104.787 
L 46.11 101.187 
z
" clip-path="url(#p0c68c53087)"/>
   </g>
   <g id="line2d_5">
    <path d="M 61.11 50.787 
L 61.11 32.787 
L 61.11 14.787 
" clip-path="url(#p0c68c53087)" style="fill: none; stroke: #000000; stroke-width: 0.75; stroke-linecap: round"/>
   </g>
   <g id="line2d_6">
    <path d="M 61.11 50.787 
L 115.11 50.787 
L 169.11 50.787 
" clip-path="url(#p0c68c53087)" style="fill: none; stroke: #000000; stroke-width: 0.75; stroke-linecap: round"/>
   </g>
   <g id="line2d_7">
    <path d="M 169.11 50.787 
L 169.11 101.547 
M 178.11 101.547 
L 160.11 101.547 
M 178.11 108.027 
L 160.11 108.027 
M 169.11 108.027 
L 169.11 158.787 
" clip-path="url(#p0c68c53087)" style="fill: none; stroke: #000000; stroke-width: 0.75; stroke-linecap: round"/>
   </g>
   <g id="line2d_8">
    <path d="M 169.11 158.787 
L 115.11 158.787 
L 61.11 158.787 
" clip-path="url(#p0c68c53087)" style="fill: none; stroke: #000000; stroke-width: 0.75; stroke-linecap: round"/>
   </g>
   <g id="line2d_9">
    <path d="M 61.11 158.787 
L 61.11 173.187 
L 52.11 173.187 
L 70.11 173.187 
M 54.81 177.507 
L 67.41 177.507 
M 59.31 181.827 
L 62.91 181.827 
" clip-path="url(#p0c68c53087)" style="fill: none; stroke: #000000; stroke-width: 0.75; stroke-linecap: round"/>
   </g>
   <g id="text_1">
    <text style="font: 12.5px 'DejaVu Serif', 'Bitstream Vera Serif', 'Computer Modern Roman', 'New Century Schoolbook', 'Century Schoolbook L', 'Utopia', 'ITC Bookman', 'Bookman', 'Nimbus Roman No9 L', 'Times New Roman', 'Times', 'Palatino', 'Charter', serif; text-anchor: start" x="71.91" y="108.236219" transform="rotate(-0 71.91 108.236219)">Q</text>
   </g>
   <g id="patch_3">
    <path d="M 61.11 17.487 
C 61.826048 17.487 62.512866 17.202511 63.019188 16.696188 
C 63.525511 16.189866 63.81 15.503048 63.81 14.787 
C 63.81 14.070952 63.525511 13.384134 63.019188 12.877812 
C 62.512866 12.371489 61.826048 12.087 61.11 12.087 
C 60.393952 12.087 59.707134 12.371489 59.200812 12.877812 
C 58.694489 13.384134 58.41 14.070952 58.41 14.787 
C 58.41 15.503048 58.694489 16.189866 59.200812 16.696188 
C 59.707134 17.202511 60.393952 17.487 61.11 17.487 
z
" clip-path="url(#p0c68c53087)" style="fill: #ffffff; stroke: #000000; stroke-width: 0.75; stroke-linejoin: miter"/>
   </g>
   <g id="text_2">
    <text style="font: 12.5px 'DejaVu Serif', 'Bitstream Vera Serif', 'Computer Modern Roman', 'New Century Schoolbook', 'Century Schoolbook L', 'Utopia', 'ITC Bookman', 'Bookman', 'Nimbus Roman No9 L', 'Times New Roman', 'Times', 'Palatino', 'Charter', serif; text-anchor: end" x="54.81" y="34.886219" transform="rotate(-0 54.81 34.886219)">Last</text>
   </g>
   <g id="text_3">
    <!-- $C_{snub}$ -->
    <g transform="translate(181.71 108.236219)">
     <text>
      <tspan style="font: oblique 12.5px 'DejaVu Sans'" x="0" y="-0.34375">C</tspan>
      <tspan style="font: oblique 8.75px 'DejaVu Sans'" x="8.728027 13.286743 18.832397 24.378052" y="1.7890625">snub</tspan>
     </text>
    </g>
   </g>
   <g id="patch_4">
    <path d="M 61.11 53.487 
C 61.826048 53.487 62.512866 53.202511 63.019188 52.696188 
C 63.525511 52.189866 63.81 51.503048 63.81 50.787 
C 63.81 50.070952 63.525511 49.384134 63.019188 48.877812 
C 62.512866 48.371489 61.826048 48.087 61.11 48.087 
C 60.393952 48.087 59.707134 48.371489 59.200812 48.877812 
C 58.694489 49.384134 58.41 50.070952 58.41 50.787 
C 58.41 51.503048 58.694489 52.189866 59.200812 52.696188 
C 59.707134 53.202511 60.393952 53.487 61.11 53.487 
z
" clip-path="url(#p0c68c53087)" style="stroke: #000000; stroke-width: 0.75; stroke-linejoin: miter"/>
   </g>
   <g id="patch_5">
    <path d="M 61.11 161.487 
C 61.826048 161.487 62.512866 161.202511 63.019188 160.696188 
C 63.525511 160.189866 63.81 159.503048 63.81 158.787 
C 63.81 158.070952 63.525511 157.384134 63.019188 156.877812 
C 62.512866 156.371489 61.826048 156.087 61.11 156.087 
C 60.393952 156.087 59.707134 156.371489 59.200812 156.877812 
C 58.694489 157.384134 58.41 158.070952 58.41 158.787 
C 58.41 159.503048 58.694489 160.189866 59.200812 160.696188 
C 59.707134 161.202511 60.393952 161.487 61.11 161.487 
z
" clip-path="url(#p0c68c53087)" style="stroke: #000000; stroke-width: 0.75; stroke-linejoin: miter"/>
   </g>
  </g>
 </g>
 <defs>
  <clipPath id="p0c68c53087">
   <rect x="3.6" y="3.6" width="182.82" height="186.714"/>
  </clipPath>
 </defs>
</svg>
